<svg xmlns="http://www.w3.org/2000/svg" width="194.301" height="68" viewBox="0 0 194.301 68"><defs><style>.a{fill:#fffefe;}</style></defs><g transform="translate(-62.541 -170.547)"><g transform="translate(62.541 170.547)"><path class="a" d="M63.363,217.829c0,11.458,12.9,20.746,28.821,20.746S121,229.286,121,217.829c0-12.079-14.861-20.608-29.024-20.744l-.36,0h.2c-4.1,0-7.271-2.394-7.271-5.346s3.325-5.346,7.427-5.346c3.738,0,6.83,1.987,7.35,4.574.4,3.985,5.007,7.237,10.707,7.237,5.962,0,10.8-3.441,10.8-7.685a5.607,5.607,0,0,0-.306-1.824c-1.938-10.1-13.98-17.7-28.547-17.7-15.918,0-28.821,9.288-28.821,20.746s12.9,20.746,28.821,20.746c4.1,0,7.427,2.393,7.427,5.346s-3.325,5.346-7.427,5.346-7.427-2.394-7.427-5.346c-.7-3.7-5.106-6.548-10.436-6.548-5.227,0-9.928,2.954-10.754,6.548l.083,1.048" transform="translate(-62.869 -170.783)"/><path class="a" d="M91.855,238.547c-16.049,0-29.106-9.4-29.11-20.948v-.017l.005-.022c.867-3.77,5.717-6.722,11.04-6.722,5.387,0,10,2.892,10.723,6.728,0,2.861,3.2,5.165,7.14,5.165s7.137-2.3,7.137-5.137a4.522,4.522,0,0,0-2.09-3.633,8.681,8.681,0,0,0-5.046-1.5h0c-16.051,0-29.111-9.4-29.111-20.954S75.6,170.547,91.652,170.547c14.72,0,26.846,7.52,28.834,17.882a5.7,5.7,0,0,1,.309,1.852c0,4.352-4.973,7.893-11.086,7.893-5.748,0-10.578-3.264-11-7.43-.5-2.491-3.538-4.381-7.061-4.381-3.936,0-7.138,2.3-7.138,5.137,0,2.881,3.067,5.138,6.982,5.138h.157c14.157.136,29.313,8.587,29.313,20.953C120.966,229.147,107.907,238.547,91.855,238.547Zm-28.5-19.917c.754,10.844,13.247,19.5,28.5,19.5,15.732,0,28.531-9.213,28.531-20.537,0-12.119-14.86-20.4-28.739-20.536l-.357,0c-4.141-.078-7.355-2.489-7.355-5.553s3.461-5.554,7.716-5.554c3.809,0,7.092,2.043,7.636,4.753.4,3.964,4.975,7.058,10.42,7.058,5.793,0,10.507-3.354,10.507-7.476a5.473,5.473,0,0,0-.3-1.774c-1.954-10.175-13.839-17.544-28.266-17.544-15.732,0-28.531,9.213-28.531,20.537s12.8,20.538,28.531,20.538h0a9.381,9.381,0,0,1,5.455,1.626,4.888,4.888,0,0,1,2.26,3.928c0,3.063-3.462,5.554-7.716,5.554s-7.716-2.491-7.716-5.554c-.686-3.6-5.048-6.339-10.147-6.339-5.037,0-9.627,2.788-10.463,6.35l.08,1.025Z" transform="translate(-62.541 -170.547)"/></g><g transform="translate(124.004 170.547)"><path class="a" d="M227.868,171.047a33.766,33.766,0,1,0,33.766,33.766A33.766,33.766,0,0,0,227.868,171.047Zm0,47.059a13.294,13.294,0,1,1,13.294-13.293A13.293,13.293,0,0,1,227.868,218.106Z" transform="translate(-193.868 -170.813)"/><path class="a" d="M227.6,238.547a34,34,0,1,1,34-34A34.039,34.039,0,0,1,227.6,238.547Zm0-67.531a33.531,33.531,0,1,0,33.531,33.531A33.569,33.569,0,0,0,227.6,171.016Zm0,47.059a13.528,13.528,0,1,1,13.528-13.528A13.543,13.543,0,0,1,227.6,218.075Zm0-26.587a13.059,13.059,0,1,0,13.059,13.059A13.074,13.074,0,0,0,227.6,191.488Z" transform="translate(-193.602 -170.547)"/></g><g transform="translate(189.963 170.547)"><path class="a" d="M364.7,171.047c-.164,0-.324.016-.485.024h-19.5a9.97,9.97,0,0,0-9.97,9.97h0a9.97,9.97,0,0,0,9.97,9.97h10.012v37.064a9.97,9.97,0,0,0,19.94,0V181.017A9.97,9.97,0,0,0,364.7,171.047Z" transform="translate(-334.514 -170.813)"/><path class="a" d="M364.435,238.015a10.216,10.216,0,0,1-10.2-10.2v-36.83h-9.778a10.2,10.2,0,0,1,0-20.409l19.65-.01c.11-.008.22-.015.333-.015a10.216,10.216,0,0,1,10.2,10.2v47.059A10.216,10.216,0,0,1,364.435,238.015Zm0-67c-.1,0-.2.007-.3.014l-.173.011H344.453a9.736,9.736,0,1,0,0,19.472H354.7v37.3a9.736,9.736,0,1,0,19.471,0V180.752A9.747,9.747,0,0,0,364.435,171.016Z" transform="translate(-334.248 -170.547)"/></g><g transform="translate(236.432 170.547)"><circle class="a" cx="9.97" cy="9.97" r="9.97" transform="translate(0.235 0.234)"/><path class="a" d="M435.013,190.956a10.2,10.2,0,1,1,10.2-10.2A10.216,10.216,0,0,1,435.013,190.956Zm0-19.94a9.736,9.736,0,1,0,9.735,9.736A9.747,9.747,0,0,0,435.013,171.016Z" transform="translate(-424.808 -170.547)"/></g></g></svg>